# xmcd
#
# Track frame offsets:
#	150
#	22335
#	45372
#	63430
#	78932
#	103705
#	130347
#	152967
#	170960
#	189890
#
# Disc length: 2798 seconds
#
# Revision: 1
# Processed by: cddbd v1.5.1PL0 Copyright (c) Steve Scherf et al.
# Submitted via: CDex 1.50Beta5
#
DISCID=840aec0a
DTITLE=篠原涼子 - RYOKO from Tokyo Performance Doll
DYEAR=1993
DGENRE=Pop
TTITLE0=STARTしましょう
TTITLE1=今のままのふたりで
TTITLE2=異国
TTITLE3=この悪魔め!!
TTITLE4=白い鴎飛んだ
TTITLE5=微笑みにgood-bye
TTITLE6=私の心にKISSをして
TTITLE7=もしもあなたが
TTITLE8=スコール
TTITLE9=薔薇が眠れるまで
EXTD=
EXTT0=
EXTT1=
EXTT2=
EXTT3=
EXTT4=
EXTT5=
EXTT6=
EXTT7=
EXTT8=
EXTT9=
PLAYORDER=
